<svg viewBox="0 0 287.8 141" xmlns="http://www.w3.org/2000/svg"><g fill="#fff"><path d="m209.4 29v50.11h12v-15.11h26v15h12v-50zm38 23h-26v-11h26z"/><path d="m198.4 56.5v12.5 10h-49v-12h37v-7h-37v-11-12.5-7.5h49v12h-37v7h37z"/><path d="m88.4 29v50.11h12v-15.11h26v15h12v-50zm38 23h-26v-11h26z"/><path d="m61.31 59.94 15.36-5.59.73-.29v-25.06h-49v50h11.84v-11.41l9-3.26 13.55 14.67h14.82zm-21-5.12v-13.82h25.09v4.68z"/><path d="m246.05 90.54h23.95v-72.1h-252.16v72.1h180l48.16 23.82v-23.82zm-241.65-85.54h279v99h-23.91v32l-64.77-32h-190.32z"/></g></svg>