<svg id="White_square_logo" data-name="White square logo" xmlns="http://www.w3.org/2000/svg" viewBox="0 0 161.97 197.5"><defs><style>.cls-1,.cls-2{fill:#5a17ee;}.cls-1{fill-rule:evenodd;}</style></defs><title>rasa_logo_square_purple</title><path class="cls-1" d="M134.48,40.72v-12h-50v50h12V63.67h26v15h12v-15h0v-12h0v-11Zm-12,11h-26v-11h26Z"/><polygon class="cls-1" points="76.48 115.25 76.48 127.75 76.48 137.75 27.48 137.75 27.48 125.75 64.48 125.75 64.48 118.75 27.48 118.75 27.48 107.75 27.48 95.25 27.48 87.75 76.48 87.75 76.48 99.75 39.48 99.75 39.48 106.75 76.48 106.75 76.48 115.25 76.48 115.25"/><path class="cls-1" d="M134.48,99.72v-12h-50v50h12V122.67h26v15h12v-15h0v-12h0v-11Zm-12,11h-26v-11h26Z"/><path class="cls-2" d="M145.48,17.75V148.44H124.75v22.28L87.27,150l-2.94-1.62H81l-64.49,0V17.75h129m13-13H3.48V161.44l77.5,0,56.76,31.35V161.44h20.74V4.75Z"/><path class="cls-1" d="M60.39,59.69,75.75,54.1l.73-.29V28.75h-49v1l-.11,49h12V67.34l9-3.26L61.87,78.75H76.69Zm-21-5.12V40.75H64.48v4.68Z"/></svg>