<svg viewBox="0 0 161.97 197.5" xmlns="http://www.w3.org/2000/svg"><g fill="#5a17ee"><g fill-rule="evenodd"><path d="m134.48 40.72v-12h-50v50h12v-15.05h26v15h12v-15-12-11zm-12 11h-26v-11h26z"/><path d="m76.48 115.25v12.5 10h-49v-12h37v-7h-37v-11-12.5-7.5h49v12h-37v7h37z"/><path d="m134.48 99.72v-12h-50v50h12v-15.05h26v15h12v-15-12-11zm-12 11h-26v-11h26z"/></g><path d="m145.48 17.75v130.69h-20.73v22.28l-37.48-20.72-2.94-1.62h-3.33-64.49v-130.63h129m13-13h-155.03v156.69h77.5l56.76 31.35v-31.35h20.74v-156.69z"/><path d="m60.39 59.69 15.36-5.59.73-.29v-25.06h-49v1l-.11 49h12v-11.41l9-3.26 13.5 14.67h14.82zm-21-5.12v-13.82h25.09v4.68z" fill-rule="evenodd"/></g></svg>